<?xml version="1.0" encoding="utf-8"?>
<!-- Generator: Adobe Illustrator 18.0.0, SVG Export Plug-In . SVG Version: 6.00 Build 0)  -->
<!DOCTYPE svg PUBLIC "-//W3C//DTD SVG 1.1//EN" "http://www.w3.org/Graphics/SVG/1.1/DTD/svg11.dtd">
<svg version="1.1" id="Layer_1" xmlns="http://www.w3.org/2000/svg" xmlns:xlink="http://www.w3.org/1999/xlink" x="0px" y="0px"
	 viewBox="0 479 612 313" enable-background="new 0 479 612 313" xml:space="preserve">
<rect x="156.4" y="542.9" fill="#B7D9EB" stroke="#0069B5" stroke-miterlimit="10" width="74.8" height="182"/>
<rect x="6.2" y="485.2" fill="none" stroke="#0069B5" stroke-miterlimit="10" width="149.6" height="300.1"/>
<rect x="230.9" y="485.5" fill="none" stroke="#0069B5" stroke-miterlimit="10" width="149.6" height="299.2"/>
<rect x="455.6" y="485.2" fill="none" stroke="#0069B5" stroke-miterlimit="10" width="149.6" height="299.5"/>
<rect x="6.5" y="634.8" fill="#0069B5" stroke="#0069B5" stroke-miterlimit="10" width="149.6" height="149.6"/>
<rect x="231.2" y="635.1" fill="#0069B5" stroke="#0069B5" stroke-miterlimit="10" width="149.6" height="149.6"/>
<rect x="455.9" y="634.8" fill="#0069B5" stroke="#0069B5" stroke-miterlimit="10" width="149.6" height="149.6"/>
<text transform="matrix(1 0 0 1 24.5324 520.2727)" fill="#0069B5" font-family="'Museo-500'" font-size="42.3364">crawl</text>
<text transform="matrix(1 0 0 1 239.0921 520.6035)" fill="#0069B5" font-family="'Museo-500'" font-size="42.3364">scrape</text>
<text transform="matrix(1 0 0 1 460.1518 520.4513)" fill="#0069B5" font-family="'Museo-500'" font-size="42.3364">extract</text>
<text transform="matrix(1 0 0 1 36.6701 564.8615)" fill="#0069B5" font-family="'Museo-500'" font-size="18.3874">sources of</text>
<text transform="matrix(1 0 0 1 40.4983 586.9487)" fill="#0069B5" font-family="'Museo-500'" font-size="18.3874">papers or</text>
<text transform="matrix(1 0 0 1 29.896 609.0374)" fill="#0069B5" font-family="'Museo-500'" font-size="18.3874">information</text>
<text transform="matrix(1 0 0 1 263.3352 557.0863)" fill="#0069B5" font-family="'Museo-500'" font-size="18.3874">resources</text>
<text transform="matrix(1 0 0 1 264.808 579.1735)" fill="#0069B5" font-family="'Museo-500'" font-size="18.3874">as files or</text>
<text transform="matrix(1 0 0 1 259.212 601.2622)" fill="#0069B5" font-family="'Museo-500'" font-size="18.3874">embedded</text>
<text transform="matrix(1 0 0 1 277.4716 623.3519)" fill="#0069B5" font-family="'Museo-500'" font-size="18.3874">in files</text>
<text transform="matrix(1 0 0 1 499.1537 571.3411)" fill="#0069B5" font-family="'Museo-500'" font-size="18.3874">entities</text>
<text transform="matrix(1 0 0 1 510.3446 593.4298)" fill="#0069B5" font-family="'Museo-500'" font-size="18.3874">facts</text>
<text transform="matrix(1 0 0 1 168.1674 580.8557)" fill="#0069B5" font-family="'Museo-500'" font-size="15.5521">unique</text>
<text transform="matrix(1 0 0 1 161.0988 599.4099)" fill="#0069B5" font-family="'Museo-500'" font-size="15.5521">identifier</text>
<text transform="matrix(1 0 0 1 179.0334 685.8262)" fill="#0069B5" font-family="'Museo-500'" font-size="15.5521">URL</text>
<text transform="matrix(1 0 0 1 179.622 704.3803)" fill="#0069B5" font-family="'Museo-500'" font-size="15.5521">DOI</text>
<text transform="matrix(1 0 0 1 53.6734 657.5316)" fill="#FFFFFF" font-family="'Museo-500'" font-size="15.5521">JTOCs</text>
<text transform="matrix(1 0 0 1 60.152 677.556)" fill="#FFFFFF" font-family="'Museo-500'" font-size="15.5521">PLoS</text>
<text transform="matrix(1 0 0 1 42.4825 697.5843)" fill="#FFFFFF" font-family="'Museo-500'" font-size="15.5521">CORE (IR)</text>
<text transform="matrix(1 0 0 1 51.9066 717.3161)" fill="#FFFFFF" font-family="'Museo-500'" font-size="15.5521">EuPMC</text>
<text transform="matrix(1 0 0 1 57.7966 737.343)" fill="#FFFFFF" font-family="'Museo-500'" font-size="15.5521">ArXiV</text>
<text transform="matrix(1 0 0 1 49.5497 757.3713)" fill="#FFFFFF" font-family="'Museo-500'" font-size="15.5521">SWORD</text>
<text transform="matrix(1 0 0 1 39.2424 777.3982)" fill="#FFFFFF" font-family="'Museo-500'" font-size="15.5521">OAI - PMH</text>
<text transform="matrix(1 0 0 1 246.8783 664.0102)" fill="#FFFFFF" font-family="'Museo-500'" font-size="15.5521">PDF   XML   PNG</text>
<text transform="matrix(1 0 0 1 246.8783 690.5156)" fill="#FFFFFF" font-family="'Museo-500'" font-size="15.5521">HTML   LaTeX</text>
<text transform="matrix(1 0 0 1 246.8783 717.0211)" fill="#FFFFFF" font-family="'Museo-500'" font-size="15.5521">SVG   CSV   TXT</text>
<text transform="matrix(1 0 0 1 246.8783 743.2315)" fill="#FFFFFF" font-family="'Museo-500'" font-size="15.5521">EPUB   XLSX</text>
<text transform="matrix(1 0 0 1 246.8783 769.7394)" fill="#FFFFFF" font-family="'Museo-500'" font-size="15.5521">DOCX   JPEG</text>
<text transform="matrix(1 0 0 1 464.6656 656.6654)" fill="#FFFFFF" font-family="'Museo-500'" font-size="15.5521">species  places</text>
<text transform="matrix(1 0 0 1 464.6656 680.2278)" fill="#FFFFFF" font-family="'Museo-500'" font-size="15.5521">date/time regex</text>
<text transform="matrix(1 0 0 1 464.6656 703.4942)" fill="#FFFFFF" font-family="'Museo-500'" font-size="15.5521">regexIDs</text>
<text transform="matrix(1 0 0 1 464.6656 727.0542)" fill="#FFFFFF" font-family="'Museo-500'" font-size="15.5521">phylogenies</text>
<text transform="matrix(1 0 0 1 464.6656 750.3216)" fill="#FFFFFF" font-family="'Museo-500'" font-size="15.5521">chemical reaction</text>
<text transform="matrix(1 0 0 1 464.6656 773.883)" fill="#FFFFFF" font-family="'Museo-500'" font-size="15.5521">molecule</text>
<line fill="none" stroke="#0069B5" stroke-miterlimit="10" x1="17.7" y1="531.2" x2="144.9" y2="531.2"/>
<line fill="none" stroke="#0069B5" stroke-miterlimit="10" x1="242.7" y1="531.4" x2="369.6" y2="531.4"/>
<line fill="none" stroke="#0069B5" stroke-miterlimit="10" x1="467.4" y1="531.2" x2="594.3" y2="531.2"/>
<g>
	<g>
		<line fill="none" stroke="#0069B5" stroke-miterlimit="10" x1="174.1" y1="622.2" x2="206.7" y2="622.2"/>
		<g>
			<path fill="#0069B5" d="M205.3,622.2l-2.4-3.5l0,0l5.6,2.4c2.1,0.3,4.1,0.9,5.9,1.2c-2.1,0.3-4.1,0.9-5.9,1.2l-5.3,2.4l0,0
				L205.3,622.2z"/>
		</g>
	</g>
</g>
<g>
	<g>
		<line fill="none" stroke="#0069B5" stroke-miterlimit="10" x1="174.1" y1="637.2" x2="206.7" y2="637.2"/>
		<g>
			<path fill="#0069B5" d="M205.3,637.2l-2.1-3.5l0,0l5.6,2.4c2.1,0.3,4.1,0.9,5.9,1.2c-2.1,0.3-4.1,0.9-5.9,1.2l-5.6,2.4l0,0
				L205.3,637.2z"/>
		</g>
	</g>
</g>
<g>
	<g>
		<line fill="none" stroke="#0069B5" stroke-miterlimit="10" x1="174.1" y1="651.9" x2="206.7" y2="651.9"/>
		<g>
			<path fill="#0069B5" d="M205.3,651.9l-2.1-3.5l0,0l5.6,2.4c2.1,0.3,4.1,0.9,5.9,1.2c-2.1,0.3-4.1,0.9-5.9,1.2l-5.6,2.4l0,0
				L205.3,651.9z"/>
		</g>
	</g>
</g>
<rect x="380.8" y="542.9" fill="#B7D9EB" stroke="#0069B5" stroke-miterlimit="10" width="74.8" height="182"/>
<text transform="matrix(1 0 0 1 390.478 559.2536)" fill="#0069B5" font-family="'Museo-500'" font-size="12.528">metadata</text>
<text transform="matrix(1 0 0 1 398.1348 574.2737)" fill="#0069B5" font-family="'Museo-500'" font-size="12.528">figures</text>
<text transform="matrix(1 0 0 1 394.0116 589.2947)" fill="#0069B5" font-family="'Museo-500'" font-size="12.528">sections</text>
<text transform="matrix(1 0 0 1 397.2511 604.3147)" fill="#0069B5" font-family="'Museo-500'" font-size="12.528">licence</text>
<text transform="matrix(1 0 0 1 385.4711 619.3333)" fill="#0069B5" font-family="'Museo-500'" font-size="12.528">etc. (JSON)</text>
<text transform="matrix(1 0 0 1 404.7855 674.1622)" fill="#0069B5" font-family="'Museo-500'" font-size="15.5521">any</text>
<text transform="matrix(1 0 0 1 403.6078 692.7163)" fill="#0069B5" font-family="'Museo-500'" font-size="15.5521">files</text>
<g>
	<g>
		<line fill="none" stroke="#0069B5" stroke-miterlimit="10" x1="398.5" y1="636" x2="431.2" y2="636"/>
		<g>
			<path fill="#0069B5" d="M429.4,636l-2.1-3.5l0,0l5.6,2.4c2.1,0.3,4.1,0.9,5.9,1.2c-2.1,0.3-4.1,0.9-5.9,1.2l-5.6,2.4l0,0
				L429.4,636z"/>
		</g>
	</g>
</g>
<g>
	<g>
		<line fill="none" stroke="#0069B5" stroke-miterlimit="10" x1="398.5" y1="650.7" x2="431.2" y2="650.7"/>
		<g>
			<path fill="#0069B5" d="M429.4,650.7l-2.1-3.5l0,0l5.6,2.4c2.1,0.3,4.1,0.9,5.9,1.2c-2.1,0.3-4.1,0.9-5.9,1.2l-5.6,2.4l0,0
				L429.4,650.7z"/>
		</g>
	</g>
</g>
<text transform="matrix(1 0 0 1 383.1292 719.0958)" fill="#0069B5" font-family="'Museo-500'" font-size="12.096">+ sectioning</text>
</svg>
